<svg width="24" height="21" viewBox="0 0 24 21" fill="none" xmlns="http://www.w3.org/2000/svg">
<path d="M20.75 3.125H17.7181L16.2273 0.889375C16.1475 0.769666 16.0393 0.671503 15.9124 0.603584C15.7856 0.535665 15.6439 0.500086 15.5 0.5H8.5C8.35609 0.500086 8.21443 0.535665 8.08756 0.603584C7.96069 0.671503 7.85252 0.769666 7.77266 0.889375L6.28078 3.125H3.25C2.55381 3.125 1.88613 3.40156 1.39384 3.89384C0.901562 4.38613 0.625 5.05381 0.625 5.75V18C0.625 18.6962 0.901562 19.3639 1.39384 19.8562C1.88613 20.3484 2.55381 20.625 3.25 20.625H20.75C21.4462 20.625 22.1139 20.3484 22.6062 19.8562C23.0984 19.3639 23.375 18.6962 23.375 18V5.75C23.375 5.05381 23.0984 4.38613 22.6062 3.89384C22.1139 3.40156 21.4462 3.125 20.75 3.125ZM15.9375 11.4375C15.9375 12.2163 15.7066 12.9775 15.2739 13.6251C14.8413 14.2726 14.2263 14.7773 13.5068 15.0753C12.7873 15.3733 11.9956 15.4513 11.2318 15.2993C10.468 15.1474 9.76644 14.7724 9.21577 14.2217C8.6651 13.6711 8.29009 12.9695 8.13816 12.2057C7.98623 11.4419 8.0642 10.6502 8.36222 9.93068C8.66024 9.2112 9.16492 8.59625 9.81244 8.16359C10.46 7.73093 11.2212 7.5 12 7.5C13.0443 7.5 14.0458 7.91484 14.7842 8.65327C15.5227 9.39169 15.9375 10.3932 15.9375 11.4375Z" fill="#BBB9B9"/>
</svg>
