<svg width="37" height="38" viewBox="0 0 37 38" fill="none" xmlns="http://www.w3.org/2000/svg">
<path d="M2 18.8333C2 27.9463 9.38705 35.3333 18.5 35.3333C27.6129 35.3333 35 27.9463 35 18.8333C35 9.72039 27.6129 2.33334 18.5 2.33334C9.38705 2.33334 2 9.72039 2 18.8333Z" stroke="white" stroke-width="3.5" stroke-linecap="round" stroke-linejoin="round"/>
<path d="M20.15 2.41583C20.15 2.41583 25.1 8.93333 25.1 18.8333C25.1 28.7333 20.15 35.2508 20.15 35.2508M16.85 35.2508C16.85 35.2508 11.9 28.7333 11.9 18.8333C11.9 8.93333 16.85 2.41583 16.85 2.41583M3.03949 24.6083H33.9605M3.03949 13.0583H33.9605" stroke="white" stroke-width="3.5" stroke-linecap="round" stroke-linejoin="round"/>
</svg>
