<svg width="28" height="28" viewBox="0 0 28 28" fill="none" xmlns="http://www.w3.org/2000/svg">
<path fill-rule="evenodd" clip-rule="evenodd" d="M23.9517 5.28501C24.1063 5.11914 24.1904 4.89976 24.1864 4.67307C24.1824 4.44639 24.0906 4.2301 23.9303 4.06979C23.77 3.90947 23.5537 3.81764 23.327 3.81364C23.1003 3.80964 22.8809 3.89379 22.7151 4.04835L4.04839 22.715C3.96242 22.7951 3.89347 22.8917 3.84565 22.9991C3.79782 23.1064 3.77211 23.2223 3.77003 23.3397C3.76796 23.4572 3.78957 23.5739 3.83358 23.6829C3.87759 23.7918 3.94309 23.8908 4.02618 23.9739C4.10927 24.057 4.20824 24.1225 4.31719 24.1665C4.42615 24.2105 4.54285 24.2321 4.66033 24.23C4.77782 24.228 4.89369 24.2022 5.00102 24.1544C5.10835 24.1066 5.20495 24.0376 5.28506 23.9517L8.82589 20.4108C10.3636 21.1202 12.1241 21.5833 14.0001 21.5833C17.0544 21.5833 19.8007 20.3572 21.7794 18.8382C22.7711 18.0775 23.5842 17.2328 24.1536 16.4115C24.7136 15.6042 25.0834 14.7572 25.0834 14C25.0834 13.2428 24.7136 12.3958 24.1536 11.5897C23.5842 10.7672 22.7711 9.92251 21.7794 9.16301C21.4644 8.92035 21.1284 8.68468 20.7761 8.46185L23.9517 5.28501ZM17.6517 11.5873L16.3684 12.8683C16.6023 13.3582 16.6787 13.9085 16.5869 14.4435C16.4951 14.9785 16.2397 15.4719 15.8558 15.8558C15.472 16.2396 14.9786 16.495 14.4436 16.5868C13.9085 16.6786 13.3582 16.6023 12.8684 16.3683L11.5851 17.6517C12.4264 18.2087 13.4344 18.4578 14.4383 18.3568C15.4423 18.2558 16.3805 17.8109 17.0939 17.0974C17.8074 16.3839 18.2524 15.4457 18.3534 14.4418C18.4544 13.4378 18.2053 12.4298 17.6482 11.5885" fill="#BBB9B9"/>
<path d="M14.7816 9.69499C14.8296 9.70398 14.8791 9.70125 14.9258 9.68703C14.9725 9.67282 15.0151 9.64753 15.05 9.61332L17.325 7.33832C17.3603 7.30354 17.3859 7.26009 17.3993 7.2123C17.4126 7.16452 17.4131 7.11408 17.4008 7.06601C17.3886 7.01795 17.3639 6.97396 17.3293 6.93842C17.2947 6.90288 17.2513 6.87704 17.2036 6.86349C16.161 6.56963 15.0832 6.4193 14 6.41666C10.9456 6.41666 8.19929 7.64282 6.22063 9.16182C5.22896 9.92249 4.41579 10.7672 3.84529 11.5885C3.28529 12.3958 2.91663 13.2428 2.91663 14C2.91663 14.7572 3.28646 15.6042 3.84529 16.4103C4.40046 17.1895 5.05639 17.8917 5.79596 18.4987C5.8513 18.5444 5.92178 18.5677 5.99348 18.5641C6.06519 18.5604 6.13291 18.53 6.18329 18.4788L9.61329 15.0488C9.6475 15.014 9.67279 14.9714 9.687 14.9247C9.70122 14.8779 9.70395 14.8285 9.69496 14.7805C9.56853 14.0847 9.61266 13.3686 9.82355 12.6936C10.0344 12.0186 10.4058 11.4048 10.9059 10.9047C11.4059 10.4047 12.0198 10.0333 12.6948 9.82242C13.3698 9.61152 14.0858 9.5674 14.7816 9.69382" fill="#BBB9B9"/>
</svg>
